<svg width="16" height="16" viewBox="0 0 16 16" fill="none" xmlns="http://www.w3.org/2000/svg">
<path d="M7.99998 1.33333C4.31998 1.33333 1.33331 4.31999 1.33331 8C1.33331 11.68 4.31998 14.6667 7.99998 14.6667C11.68 14.6667 14.6666 11.68 14.6666 8C14.6666 4.31999 11.68 1.33333 7.99998 1.33333ZM7.28665 11.4333C7.28665 11.5 7.27331 11.56 7.24665 11.6267C7.19331 11.7467 7.09998 11.8467 6.97331 11.9C6.91331 11.9267 6.84665 11.94 6.77998 11.94C6.71331 11.94 6.65331 11.9267 6.58665 11.9C6.52665 11.8733 6.47331 11.84 6.42665 11.7933L4.39998 9.76666C4.20665 9.57333 4.20665 9.25333 4.39998 9.06C4.59331 8.86666 4.91331 8.86666 5.10665 9.06L6.27998 10.2333V4.56666C6.27998 4.29333 6.50665 4.06666 6.77998 4.06666C7.05331 4.06666 7.27998 4.29333 7.27998 4.56666V11.4333H7.28665ZM11.5933 6.94666C11.4933 7.04666 11.3666 7.09333 11.24 7.09333C11.1133 7.09333 10.9866 7.04666 10.8866 6.94666L9.71331 5.77333V11.44C9.71331 11.7133 9.48665 11.94 9.21331 11.94C8.93998 11.94 8.71331 11.7133 8.71331 11.44V4.56666C8.71331 4.49999 8.72665 4.44 8.75331 4.37333C8.80665 4.25333 8.89998 4.15333 9.02665 4.1C9.14665 4.04666 9.28665 4.04666 9.40665 4.1C9.46665 4.12666 9.51998 4.15999 9.56665 4.20666L11.5933 6.23333C11.7866 6.43333 11.7866 6.74666 11.5933 6.94666Z" fill="white"/>
</svg>
