<svg width="16" height="17" viewBox="0 0 16 17" fill="none" xmlns="http://www.w3.org/2000/svg">
<path d="M6.10667 7.78762C6.04 7.78095 5.96 7.78095 5.88667 7.78762C4.3 7.73429 3.04 6.43429 3.04 4.83429C3.04 3.20095 4.36 1.87429 6 1.87429C7.63333 1.87429 8.96 3.20095 8.96 4.83429C8.95333 6.43429 7.69333 7.73429 6.10667 7.78762Z" stroke="white" stroke-width="1.5" stroke-linecap="round" stroke-linejoin="round"/>
<path d="M10.94 3.20762C12.2333 3.20762 13.2733 4.25429 13.2733 5.54096C13.2733 6.80096 12.2733 7.82762 11.0267 7.87429C10.9733 7.86762 10.9133 7.86762 10.8533 7.87429" stroke="white" stroke-width="1.5" stroke-linecap="round" stroke-linejoin="round"/>
<path d="M2.77333 10.2476C1.16 11.3276 1.16 13.0876 2.77333 14.161C4.60666 15.3876 7.61333 15.3876 9.44666 14.161C11.06 13.081 11.06 11.321 9.44666 10.2476C7.62 9.02762 4.61333 9.02762 2.77333 10.2476Z" stroke="white" stroke-width="1.5" stroke-linecap="round" stroke-linejoin="round"/>
<path d="M12.2267 13.8743C12.7067 13.7743 13.16 13.581 13.5333 13.2943C14.5733 12.5143 14.5733 11.2276 13.5333 10.4476C13.1667 10.1676 12.72 9.98095 12.2467 9.87429" stroke="white" stroke-width="1.5" stroke-linecap="round" stroke-linejoin="round"/>
</svg>
