<svg width="16" height="17" viewBox="0 0 16 17" fill="none" xmlns="http://www.w3.org/2000/svg">
<path d="M14.1667 6.64097C12.6267 4.22097 10.3733 2.82764 8 2.82764C6.81333 2.82764 5.66 3.1743 4.60666 3.82097C3.55333 4.4743 2.60666 5.42764 1.83333 6.64097C1.16666 7.68764 1.16666 9.38764 1.83333 10.4343C3.37333 12.861 5.62666 14.2476 8 14.2476C9.18666 14.2476 10.34 13.901 11.3933 13.2543C12.4467 12.601 13.3933 11.6476 14.1667 10.4343C14.8333 9.3943 14.8333 7.68764 14.1667 6.64097ZM8 11.2343C6.50666 11.2343 5.30666 10.0276 5.30666 8.54097C5.30666 7.0543 6.50666 5.84764 8 5.84764C9.49333 5.84764 10.6933 7.0543 10.6933 8.54097C10.6933 10.0276 9.49333 11.2343 8 11.2343Z" fill="white"/>
<path d="M8.00001 6.63428C6.95334 6.63428 6.10001 7.48761 6.10001 8.54094C6.10001 9.58761 6.95334 10.4409 8.00001 10.4409C9.04667 10.4409 9.90667 9.58761 9.90667 8.54094C9.90667 7.49428 9.04667 6.63428 8.00001 6.63428Z" fill="white"/>
</svg>
