<svg width="16" height="16" viewBox="0 0 16 16" fill="none" xmlns="http://www.w3.org/2000/svg">
<path d="M14.6666 5.03333C14.6666 5.47333 14.3066 5.83333 13.8666 5.83333H2.13331C1.69331 5.83333 1.33331 5.47333 1.33331 5.03333V5.02666C1.33331 3.5 2.56665 2.26666 4.09331 2.26666H11.9C13.4266 2.26666 14.6666 3.50666 14.6666 5.03333Z" fill="white"/>
<path d="M1.33331 7.63333V10.9733C1.33331 12.5 2.56665 13.7333 4.09331 13.7333H11.9C13.4266 13.7333 14.6666 12.4933 14.6666 10.9667V7.63333C14.6666 7.19333 14.3066 6.83333 13.8666 6.83333H2.13331C1.69331 6.83333 1.33331 7.19333 1.33331 7.63333ZM5.33331 11.5H3.99998C3.72665 11.5 3.49998 11.2733 3.49998 11C3.49998 10.7267 3.72665 10.5 3.99998 10.5H5.33331C5.60665 10.5 5.83331 10.7267 5.83331 11C5.83331 11.2733 5.60665 11.5 5.33331 11.5ZM9.66665 11.5H6.99998C6.72665 11.5 6.49998 11.2733 6.49998 11C6.49998 10.7267 6.72665 10.5 6.99998 10.5H9.66665C9.93998 10.5 10.1666 10.7267 10.1666 11C10.1666 11.2733 9.93998 11.5 9.66665 11.5Z" fill="white"/>
</svg>
