<svg width="24" height="25" viewBox="0 0 24 25" fill="none" xmlns="http://www.w3.org/2000/svg">
<path d="M22 8.56096V4.02095C22 2.61095 21.36 2.04095 19.77 2.04095H15.73C14.14 2.04095 13.5 2.61095 13.5 4.02095V8.55095C13.5 9.97095 14.14 10.531 15.73 10.531H19.77C21.36 10.541 22 9.97095 22 8.56096Z" fill="#017189"/>
<path d="M22 19.811V15.771C22 14.181 21.36 13.541 19.77 13.541H15.73C14.14 13.541 13.5 14.181 13.5 15.771V19.811C13.5 21.401 14.14 22.041 15.73 22.041H19.77C21.36 22.041 22 21.401 22 19.811Z" fill="#017189"/>
<path d="M10.5 8.56096V4.02095C10.5 2.61095 9.86 2.04095 8.27 2.04095H4.23C2.64 2.04095 2 2.61095 2 4.02095V8.55095C2 9.97095 2.64 10.531 4.23 10.531H8.27C9.86 10.541 10.5 9.97095 10.5 8.56096Z" fill="#017189"/>
<path d="M10.5 19.811V15.771C10.5 14.181 9.86 13.541 8.27 13.541H4.23C2.64 13.541 2 14.181 2 15.771V19.811C2 21.401 2.64 22.041 4.23 22.041H8.27C9.86 22.041 10.5 21.401 10.5 19.811Z" fill="#017189"/>
</svg>
