<svg width="16" height="16" viewBox="0 0 16 16" fill="none" xmlns="http://www.w3.org/2000/svg">
<path d="M7.50003 5.38667V7.29334L6.8267 7.06001C6.4867 6.94001 6.28003 6.82667 6.28003 6.24667C6.28003 5.77334 6.63336 5.38667 7.0667 5.38667H7.50003Z" fill="white"/>
<path d="M9.72 9.75333C9.72 10.2267 9.36667 10.6133 8.93333 10.6133H8.5V8.70667L9.17333 8.94C9.51333 9.06 9.72 9.17333 9.72 9.75333Z" fill="#55676B"/>
<path d="M10.7933 1.33333H5.20665C2.77998 1.33333 1.33331 2.77999 1.33331 5.20666V10.7933C1.33331 13.22 2.77998 14.6667 5.20665 14.6667H10.7933C13.22 14.6667 14.6666 13.22 14.6666 10.7933V5.20666C14.6666 2.77999 13.22 1.33333 10.7933 1.33333ZM9.50665 8C10.0266 8.18 10.72 8.56 10.72 9.75333C10.72 10.78 9.91998 11.6133 8.93331 11.6133H8.49998V12C8.49998 12.2733 8.27331 12.5 7.99998 12.5C7.72665 12.5 7.49998 12.2733 7.49998 12V11.6133H7.25998C6.16665 11.6133 5.27998 10.6867 5.27998 9.55333C5.27998 9.27999 5.49998 9.05333 5.77998 9.05333C6.05331 9.05333 6.27998 9.27999 6.27998 9.55333C6.27998 10.14 6.71998 10.6133 7.25998 10.6133H7.49998V8.35333L6.49331 8C5.97331 7.81999 5.27998 7.43999 5.27998 6.24666C5.27998 5.22 6.07998 4.38666 7.06665 4.38666H7.49998V3.99999C7.49998 3.72666 7.72665 3.49999 7.99998 3.49999C8.27331 3.49999 8.49998 3.72666 8.49998 3.99999V4.38666H8.73998C9.83331 4.38666 10.72 5.31333 10.72 6.44666C10.72 6.72 10.5 6.94666 10.22 6.94666C9.94665 6.94666 9.71998 6.72 9.71998 6.44666C9.71998 5.85999 9.27998 5.38666 8.73998 5.38666H8.49998V7.64666L9.50665 8Z" fill="white"/>
</svg>
