<svg width="16" height="17" viewBox="0 0 16 17" fill="none" xmlns="http://www.w3.org/2000/svg">
<path d="M5.78125 10.0942C5.78125 10.9542 6.44125 11.6475 7.26125 11.6475H8.93458C9.64792 11.6475 10.2279 11.0408 10.2279 10.2942C10.2279 9.48085 9.87458 9.19418 9.34792 9.00751L6.66125 8.07418C6.13458 7.88751 5.78125 7.60085 5.78125 6.78751C5.78125 6.04085 6.36125 5.43418 7.07458 5.43418H8.74792C9.56792 5.43418 10.2279 6.12751 10.2279 6.98751" stroke="white" stroke-width="1.5" stroke-linecap="round" stroke-linejoin="round"/>
<path d="M8 4.54095V12.541" stroke="white" stroke-width="1.5" stroke-linecap="round" stroke-linejoin="round"/>
<path d="M10 15.2076H6C2.66667 15.2076 1.33333 13.8743 1.33333 10.541V6.54096C1.33333 3.20762 2.66667 1.87429 6 1.87429H10C13.3333 1.87429 14.6667 3.20762 14.6667 6.54096V10.541C14.6667 13.8743 13.3333 15.2076 10 15.2076Z" stroke="white" stroke-width="1.5" stroke-linecap="round" stroke-linejoin="round"/>
</svg>
