<svg width="16" height="16" viewBox="0 0 16 16" fill="none" xmlns="http://www.w3.org/2000/svg">
<path d="M11.3334 2.33333H4.66671C2.66671 2.33333 1.33337 3.33333 1.33337 5.66666V10.3333C1.33337 12.6667 2.66671 13.6667 4.66671 13.6667H11.3334C13.3334 13.6667 14.6667 12.6667 14.6667 10.3333V5.66666C14.6667 3.33333 13.3334 2.33333 11.3334 2.33333ZM4.16671 9.66666C4.16671 9.94 3.94004 10.1667 3.66671 10.1667C3.39337 10.1667 3.16671 9.94 3.16671 9.66666V6.33333C3.16671 6.05999 3.39337 5.83333 3.66671 5.83333C3.94004 5.83333 4.16671 6.05999 4.16671 6.33333V9.66666ZM8.00004 10C6.89337 10 6.00004 9.10666 6.00004 8C6.00004 6.89333 6.89337 5.99999 8.00004 5.99999C9.10671 5.99999 10 6.89333 10 8C10 9.10666 9.10671 10 8.00004 10ZM12.8334 9.66666C12.8334 9.94 12.6067 10.1667 12.3334 10.1667C12.06 10.1667 11.8334 9.94 11.8334 9.66666V6.33333C11.8334 6.05999 12.06 5.83333 12.3334 5.83333C12.6067 5.83333 12.8334 6.05999 12.8334 6.33333V9.66666Z" fill="white"/>
</svg>
