<svg width="16" height="16" viewBox="0 0 16 16" fill="none" xmlns="http://www.w3.org/2000/svg">
<path d="M12.7134 9.49333C12.5201 9.68667 12.2134 9.68667 12.0267 9.49333C11.8334 9.3 11.8334 8.99333 12.0267 8.80667C13.3601 7.47333 13.3601 5.30667 12.0267 3.98C10.6934 2.65333 8.52673 2.64667 7.20006 3.98C5.87339 5.31333 5.86673 7.48 7.20006 8.80667C7.39339 9 7.39339 9.30667 7.20006 9.49333C7.00673 9.68667 6.70006 9.68667 6.51339 9.49333C4.80006 7.78 4.80006 4.99333 6.51339 3.28667C8.22673 1.58 11.0134 1.57333 12.7201 3.28667C14.4267 5 14.4267 7.78 12.7134 9.49333Z" fill="white"/>
<path d="M3.28669 6.50666C3.48002 6.31333 3.78669 6.31333 3.97336 6.50666C4.16669 6.7 4.16669 7.00666 3.97336 7.19333C2.64002 8.52666 2.64002 10.6933 3.97336 12.02C5.30669 13.3467 7.47336 13.3533 8.80002 12.02C10.1267 10.6867 10.1334 8.52 8.80002 7.19333C8.60669 7 8.60669 6.69333 8.80002 6.50666C8.99336 6.31333 9.30002 6.31333 9.48669 6.50666C11.2 8.22 11.2 11.0067 9.48669 12.7133C7.77336 14.42 4.98669 14.4267 3.28002 12.7133C1.57336 11 1.57336 8.22 3.28669 6.50666Z" fill="white"/>
</svg>
