<svg width="18" height="16" viewBox="0 0 24 24" fill="none" xmlns="http://www.w3.org/2000/svg">
<path d="M11.7063 13.1424V14.1077C11.7063 14.4398 11.5314 14.7553 11.2362 14.9075C10.8948 15.0835 10.4875 15.0172 10.2202 14.7501L9.58849 14.1182L8.99438 14.7123L10.4699 16.1877C10.6342 16.3522 10.7248 16.5708 10.7248 16.8033V23.2351C10.7248 23.6574 11.0672 23.9998 11.4895 23.9998H12.7633C13.1856 23.9998 13.528 23.6574 13.528 23.2351V17.7704C13.528 17.5379 13.6185 17.3193 13.7829 17.1548L15.0058 15.932L14.4117 15.3379L14.0326 15.717C13.7654 15.9839 13.3587 16.0501 13.0173 15.8748C12.7217 15.7232 12.5465 15.4078 12.5465 15.0757V13.1424H11.7063Z" fill="#4D7C0F"/>
<path d="M23.3883 9.87604C23.3883 7.06877 21.2108 4.76065 18.4561 4.55232C17.4947 1.84323 14.9222 0 11.9999 0C9.07755 0 6.50511 1.84323 5.54373 4.5524C2.78899 4.76073 0.61145 7.06885 0.61145 9.87612C0.61145 11.3084 1.17921 12.6621 2.1847 13.661C2.14422 13.9097 2.12385 14.1613 2.12385 14.4131C2.12385 16.9997 4.22818 19.104 6.81468 19.104H9.60183V16.908L8.02188 15.3281C7.85751 15.1638 7.76684 14.9451 7.76684 14.7125C7.76684 14.4798 7.85743 14.2612 8.02204 14.0968L8.97274 13.146C9.31222 12.8067 9.86446 12.8067 10.2039 13.146L10.5833 13.5255V12.8903C10.5833 12.4103 10.9739 12.0197 11.4539 12.0197H12.7986C13.2786 12.0197 13.6691 12.4102 13.6691 12.8903V14.4925L13.7959 14.3657C13.9603 14.2013 14.179 14.1107 14.4115 14.1107C14.644 14.1106 14.8627 14.2012 15.0271 14.3657L15.9779 15.3164C15.9779 15.3164 15.9779 15.3164 15.978 15.3164C16.3174 15.6559 16.3174 16.2082 15.978 16.5476L14.6506 17.875V19.104H17.1852C19.7717 19.104 21.876 16.9997 21.876 14.4131C21.876 14.1613 21.8557 13.9097 21.8152 13.661C22.8206 12.662 23.3883 11.3084 23.3883 9.87604Z" fill="#15803D"/>
</svg>
