<svg width="48" height="48" viewBox="0 0 48 48" fill="none" xmlns="http://www.w3.org/2000/svg">
<mask id="mask0_1457_487" style="mask-type:alpha" maskUnits="userSpaceOnUse" x="0" y="0" width="48" height="48">
<circle cx="24" cy="24" r="24" fill="#C4C4C4"/>
</mask>
<g mask="url(#mask0_1457_487)">
<rect x="-1" y="1" width="52" height="47" rx="2" fill="white"/>
<mask id="mask1_1457_487" style="mask-type:alpha" maskUnits="userSpaceOnUse" x="-1" y="1" width="52" height="47">
<rect x="-1" y="1" width="52" height="47" rx="2" fill="white"/>
</mask>
<g mask="url(#mask1_1457_487)">
<path fill-rule="evenodd" clip-rule="evenodd" d="M51 1H-1V4.13333H51V1ZM51 7.26667H-1V10.4H51V7.26667ZM-1 13.5333H51V16.6667H-1V13.5333ZM51 19.8H-1V22.9333H51V19.8ZM-1 26.0667H51V29.2H-1V26.0667ZM51 32.3333H-1V35.4667H51V32.3333ZM-1 38.6H51V41.7333H-1V38.6ZM51 44.8667H-1V48H51V44.8667Z" fill="#D02F44"/>
<rect x="-1" y="1" width="22.2857" height="21.9333" fill="#46467F"/>
<g filter="url(#filter0_d_1457_487)">
<path fill-rule="evenodd" clip-rule="evenodd" d="M3.95239 5.7C3.95239 6.56524 3.39807 7.26666 2.71429 7.26666C2.03051 7.26666 1.4762 6.56524 1.4762 5.7C1.4762 4.83475 2.03051 4.13333 2.71429 4.13333C3.39807 4.13333 3.95239 4.83475 3.95239 5.7ZM8.90477 5.7C8.90477 6.56524 8.35045 7.26666 7.66667 7.26666C6.98289 7.26666 6.42858 6.56524 6.42858 5.7C6.42858 4.83475 6.98289 4.13333 7.66667 4.13333C8.35045 4.13333 8.90477 4.83475 8.90477 5.7ZM12.6191 7.26666C13.3028 7.26666 13.8571 6.56524 13.8571 5.7C13.8571 4.83475 13.3028 4.13333 12.6191 4.13333C11.9353 4.13333 11.381 4.83475 11.381 5.7C11.381 6.56524 11.9353 7.26666 12.6191 7.26666ZM18.8095 5.7C18.8095 6.56524 18.2552 7.26666 17.5714 7.26666C16.8877 7.26666 16.3333 6.56524 16.3333 5.7C16.3333 4.83475 16.8877 4.13333 17.5714 4.13333C18.2552 4.13333 18.8095 4.83475 18.8095 5.7ZM5.19048 10.4C5.87426 10.4 6.42858 9.69858 6.42858 8.83333C6.42858 7.96809 5.87426 7.26666 5.19048 7.26666C4.5067 7.26666 3.95239 7.96809 3.95239 8.83333C3.95239 9.69858 4.5067 10.4 5.19048 10.4ZM11.381 8.83333C11.381 9.69858 10.8266 10.4 10.1429 10.4C9.45908 10.4 8.90477 9.69858 8.90477 8.83333C8.90477 7.96809 9.45908 7.26666 10.1429 7.26666C10.8266 7.26666 11.381 7.96809 11.381 8.83333ZM15.0952 10.4C15.779 10.4 16.3333 9.69858 16.3333 8.83333C16.3333 7.96809 15.779 7.26666 15.0952 7.26666C14.4115 7.26666 13.8571 7.96809 13.8571 8.83333C13.8571 9.69858 14.4115 10.4 15.0952 10.4ZM18.8095 11.9667C18.8095 12.8319 18.2552 13.5333 17.5714 13.5333C16.8877 13.5333 16.3333 12.8319 16.3333 11.9667C16.3333 11.1014 16.8877 10.4 17.5714 10.4C18.2552 10.4 18.8095 11.1014 18.8095 11.9667ZM12.6191 13.5333C13.3028 13.5333 13.8571 12.8319 13.8571 11.9667C13.8571 11.1014 13.3028 10.4 12.6191 10.4C11.9353 10.4 11.381 11.1014 11.381 11.9667C11.381 12.8319 11.9353 13.5333 12.6191 13.5333ZM8.90477 11.9667C8.90477 12.8319 8.35045 13.5333 7.66667 13.5333C6.98289 13.5333 6.42858 12.8319 6.42858 11.9667C6.42858 11.1014 6.98289 10.4 7.66667 10.4C8.35045 10.4 8.90477 11.1014 8.90477 11.9667ZM2.71429 13.5333C3.39807 13.5333 3.95239 12.8319 3.95239 11.9667C3.95239 11.1014 3.39807 10.4 2.71429 10.4C2.03051 10.4 1.4762 11.1014 1.4762 11.9667C1.4762 12.8319 2.03051 13.5333 2.71429 13.5333ZM6.42858 15.1C6.42858 15.9652 5.87426 16.6667 5.19048 16.6667C4.5067 16.6667 3.95239 15.9652 3.95239 15.1C3.95239 14.2348 4.5067 13.5333 5.19048 13.5333C5.87426 13.5333 6.42858 14.2348 6.42858 15.1ZM10.1429 16.6667C10.8266 16.6667 11.381 15.9652 11.381 15.1C11.381 14.2348 10.8266 13.5333 10.1429 13.5333C9.45908 13.5333 8.90477 14.2348 8.90477 15.1C8.90477 15.9652 9.45908 16.6667 10.1429 16.6667ZM16.3333 15.1C16.3333 15.9652 15.779 16.6667 15.0952 16.6667C14.4115 16.6667 13.8571 15.9652 13.8571 15.1C13.8571 14.2348 14.4115 13.5333 15.0952 13.5333C15.779 13.5333 16.3333 14.2348 16.3333 15.1ZM17.5714 19.8C18.2552 19.8 18.8095 19.0986 18.8095 18.2333C18.8095 17.3681 18.2552 16.6667 17.5714 16.6667C16.8877 16.6667 16.3333 17.3681 16.3333 18.2333C16.3333 19.0986 16.8877 19.8 17.5714 19.8ZM13.8571 18.2333C13.8571 19.0986 13.3028 19.8 12.6191 19.8C11.9353 19.8 11.381 19.0986 11.381 18.2333C11.381 17.3681 11.9353 16.6667 12.6191 16.6667C13.3028 16.6667 13.8571 17.3681 13.8571 18.2333ZM7.66667 19.8C8.35045 19.8 8.90477 19.0986 8.90477 18.2333C8.90477 17.3681 8.35045 16.6667 7.66667 16.6667C6.98289 16.6667 6.42858 17.3681 6.42858 18.2333C6.42858 19.0986 6.98289 19.8 7.66667 19.8ZM3.95239 18.2333C3.95239 19.0986 3.39807 19.8 2.71429 19.8C2.03051 19.8 1.4762 19.0986 1.4762 18.2333C1.4762 17.3681 2.03051 16.6667 2.71429 16.6667C3.39807 16.6667 3.95239 17.3681 3.95239 18.2333Z" fill="url(#paint0_linear_1457_487)"/>
</g>
</g>
</g>
<defs>
<filter id="filter0_d_1457_487" x="1.4762" y="4.13333" width="17.3333" height="16.6667" filterUnits="userSpaceOnUse" color-interpolation-filters="sRGB">
<feFlood flood-opacity="0" result="BackgroundImageFix"/>
<feColorMatrix in="SourceAlpha" type="matrix" values="0 0 0 0 0 0 0 0 0 0 0 0 0 0 0 0 0 0 127 0" result="hardAlpha"/>
<feOffset dy="1"/>
<feColorMatrix type="matrix" values="0 0 0 0 0 0 0 0 0 0 0 0 0 0 0 0 0 0 0.06 0"/>
<feBlend mode="normal" in2="BackgroundImageFix" result="effect1_dropShadow_1457_487"/>
<feBlend mode="normal" in="SourceGraphic" in2="effect1_dropShadow_1457_487" result="shape"/>
</filter>
<linearGradient id="paint0_linear_1457_487" x1="1.4762" y1="4.13333" x2="1.4762" y2="19.8" gradientUnits="userSpaceOnUse">
<stop stop-color="white"/>
<stop offset="1" stop-color="#F0F0F0"/>
</linearGradient>
</defs>
</svg>
