<svg width="16" height="16" viewBox="0 0 16 16" fill="none" xmlns="http://www.w3.org/2000/svg">
<path d="M14.6666 7.16667C14.94 7.16667 15.1666 6.94 15.1666 6.66667V6C15.1666 3.06001 14.2733 2.16667 11.3333 2.16667H7.16665V3.66667C7.16665 3.94 6.93998 4.16667 6.66665 4.16667C6.39331 4.16667 6.16665 3.94 6.16665 3.66667V2.16667H4.66665C1.72665 2.16667 0.833313 3.06001 0.833313 6V6.33334C0.833313 6.60667 1.05998 6.83334 1.33331 6.83334C1.97331 6.83334 2.49998 7.36 2.49998 8C2.49998 8.64 1.97331 9.16667 1.33331 9.16667C1.05998 9.16667 0.833313 9.39334 0.833313 9.66667V10C0.833313 12.94 1.72665 13.8333 4.66665 13.8333H6.16665V12.3333C6.16665 12.06 6.39331 11.8333 6.66665 11.8333C6.93998 11.8333 7.16665 12.06 7.16665 12.3333V13.8333H11.3333C14.2733 13.8333 15.1666 12.94 15.1666 10C15.1666 9.72667 14.94 9.5 14.6666 9.5C14.0266 9.5 13.5 8.97334 13.5 8.33334C13.5 7.69334 14.0266 7.16667 14.6666 7.16667ZM7.16665 9.44667C7.16665 9.72 6.93998 9.94667 6.66665 9.94667C6.39331 9.94667 6.16665 9.72 6.16665 9.44667V6.55334C6.16665 6.28 6.39331 6.05334 6.66665 6.05334C6.93998 6.05334 7.16665 6.28 7.16665 6.55334V9.44667Z" fill="white"/>
</svg>
