<svg width="16" height="17" viewBox="0 0 16 17" fill="none" xmlns="http://www.w3.org/2000/svg">
<path d="M8.66667 6.54095H4.66667" stroke="white" stroke-width="1.5" stroke-linecap="round" stroke-linejoin="round"/>
<path d="M14.6667 7.85427V9.22765C14.6667 9.59431 14.3734 9.89428 14 9.90762H12.6933C11.9733 9.90762 11.3134 9.38095 11.2534 8.66095C11.2134 8.24095 11.3733 7.84762 11.6533 7.57428C11.9 7.32095 12.24 7.1743 12.6133 7.1743H14C14.3734 7.18763 14.6667 7.48761 14.6667 7.85427Z" stroke="white" stroke-width="1.5" stroke-linecap="round" stroke-linejoin="round"/>
<path d="M11.6533 7.57427C11.3733 7.84761 11.2133 8.24094 11.2533 8.66094C11.3133 9.38094 11.9733 9.90761 12.6933 9.90761H14V10.8743C14 12.8743 12.6667 14.2076 10.6667 14.2076H4.66667C2.66667 14.2076 1.33333 12.8743 1.33333 10.8743V6.20762C1.33333 4.39428 2.42667 3.12761 4.12667 2.91428C4.3 2.88761 4.48 2.87428 4.66667 2.87428H10.6667C10.84 2.87428 11.0067 2.88094 11.1667 2.90761C12.8867 3.10761 14 4.38095 14 6.20762V7.17429H12.6133C12.24 7.17429 11.9 7.32094 11.6533 7.57427Z" stroke="white" stroke-width="1.5" stroke-linecap="round" stroke-linejoin="round"/>
</svg>
