<svg width="16" height="16" viewBox="0 0 16 16" fill="none" xmlns="http://www.w3.org/2000/svg">
<path d="M14.6667 7.31333V8.68666C14.6667 9.05333 14.3733 9.35333 14 9.36666H12.6933C11.9733 9.36666 11.3133 8.84 11.2533 8.12C11.2133 7.7 11.3733 7.30666 11.6533 7.03333C11.9 6.78 12.24 6.63333 12.6133 6.63333H14C14.3733 6.64666 14.6667 6.94666 14.6667 7.31333Z" fill="white"/>
<path d="M13.6467 10.3667H12.6933C11.4267 10.3667 10.36 9.41333 10.2533 8.2C10.1933 7.50666 10.4467 6.81333 10.9533 6.31999C11.38 5.87999 11.9733 5.63333 12.6133 5.63333H13.6467C13.84 5.63333 14 5.47333 13.98 5.27999C13.8333 3.65999 12.76 2.55333 11.1667 2.36666C11.0067 2.33999 10.84 2.33333 10.6667 2.33333H4.66668C4.48001 2.33333 4.30001 2.34666 4.12668 2.37333C2.42668 2.58666 1.33334 3.85333 1.33334 5.66666V10.3333C1.33334 12.1733 2.82668 13.6667 4.66668 13.6667H10.6667C12.5333 13.6667 13.82 12.5 13.98 10.72C14 10.5267 13.84 10.3667 13.6467 10.3667ZM8.66668 6.5H4.66668C4.39334 6.5 4.16668 6.27333 4.16668 5.99999C4.16668 5.72666 4.39334 5.49999 4.66668 5.49999H8.66668C8.94001 5.49999 9.16668 5.72666 9.16668 5.99999C9.16668 6.27333 8.94001 6.5 8.66668 6.5Z" fill="white"/>
</svg>
