<svg width="16" height="17" viewBox="0 0 16 17" fill="none" xmlns="http://www.w3.org/2000/svg">
<rect width="16" height="16" transform="translate(0 0.540955)" fill="white"/>
<path d="M13.3333 4.20762C13.8856 4.20762 14.3333 3.75991 14.3333 3.20762C14.3333 2.65534 13.8856 2.20762 13.3333 2.20762V4.20762ZM3.66667 4.20762L13.3333 4.20762V2.20762L3.66667 2.20762V4.20762ZM3.66667 7.54095L9 7.54095V5.54095L3.66667 5.54095V7.54095ZM3 4.87429C3 4.5061 3.29848 4.20762 3.66667 4.20762V2.20762C2.19391 2.20762 1 3.40153 1 4.87429H3ZM1 4.87429C1 6.34705 2.19391 7.54095 3.66667 7.54095V5.54095C3.29848 5.54095 3 5.24248 3 4.87429H1Z" fill="#14B8A6"/>
<path d="M3 8.54095L3 4.87429H1L1 8.54095H3Z" fill="#14B8A6"/>
<path d="M2 6.04095H1.5V6.54095L1.5 12.541L1.5 12.5739C1.49997 13.0171 1.49995 13.399 1.54107 13.7049C1.58514 14.0326 1.68451 14.3468 1.93934 14.6016L2.29289 14.2481L1.93934 14.6016C2.19417 14.8564 2.50835 14.9558 2.8361 14.9999C3.14193 15.041 3.52384 15.041 3.96708 15.041L4 15.041L12 15.041C12.011 15.041 12.022 15.041 12.0329 15.041C12.4762 15.041 12.8581 15.041 13.1639 14.9999C13.4917 14.9558 13.8058 14.8564 14.0607 14.6016C14.3155 14.3468 14.4149 14.0326 14.4589 13.7049C14.5 13.399 14.5 13.0171 14.5 12.5739C14.5 12.5629 14.5 12.552 14.5 12.541V12.041H14H12C11.1716 12.041 10.5 11.3694 10.5 10.541C10.5 9.71253 11.1716 9.04095 12 9.04095H14H14.5L14.5 8.54095L14.5 8.50804C14.5 8.0648 14.5 7.68289 14.4589 7.37706C14.4149 7.0493 14.3155 6.73513 14.0607 6.48029C13.8058 6.22546 13.4917 6.12609 13.1639 6.08202C12.8581 6.04091 12.4762 6.04093 12.0329 6.04095L12 6.04095L2 6.04095Z" fill="#14B8A6" stroke="#14B8A6"/>
</svg>
